# xmcd
#
# Track frame offsets:
#	150
#	14981
#	32208
#	50022
#	61329
#	96252
#	111936
#	125506
#	144066
#	160485
#
# Disc length: 2350 seconds
# Revision: 0
# Processed by: cddbd v1.5.2PL0 Copyright (c) Steve Scherf et al.
# Submitted via: dBpowerAMP V12.0
#
DISCID=90092c0a
DTITLE=Steve Krase - Buckle Up
DYEAR=2014
DGENRE=Blues
TTITLE0=Jolene
TTITLE1=Daddy's Got a Cadillac (Mama Rides A Mule)
TTITLE2=I Just Want To Make Love To You
TTITLE3=Misery
TTITLE4=Night Train (from Oakland)
TTITLE5=Blueshound
TTITLE6=I Like Them All
TTITLE7=Buckle Up
TTITLE8=Big Bad Woman
TTITLE9=Now
EXTD=
EXTT0=
EXTT1=
EXTT2=
EXTT3=
EXTT4=
EXTT5=
EXTT6=
EXTT7=
EXTT8=
EXTT9=
PLAYORDER=
